<svg xmlns="http://www.w3.org/2000/svg" viewBox="0 0 512 512">
  <rect width="512" height="512" rx="100" fill="#FFFFFF"/>
  <circle cx="256" cy="256" r="210" fill="#2E86AB" opacity="0.1"/>
  <path d="M256 420s-160-94-160-200c0-60 48-100 100-100 30 0 50 15 60 35 10-20 30-35 60-35 52 0 100 40 100 100 0 106-160 200-160 200z" fill="#A23B72"/>
  <path d="M190 260c-20 0-40 20-40 50s20 50 40 50 40-20 40-50-20-50-40-50zM322 260c20 0 40 20 40 50s-20 50-40 50-40-20-40-50 20-50 40-50z" fill="#FFFFFF" opacity="0.8"/>
  <circle cx="256" cy="170" r="40" fill="#F18F01"/>
</svg>
